<?xml version="1.0" standalone="no"?>
<!DOCTYPE svg PUBLIC "-//W3C//DTD SVG 20010904//EN"
 "http://www.w3.org/TR/2001/REC-SVG-20010904/DTD/svg10.dtd">
<svg version="1.0" xmlns="http://www.w3.org/2000/svg"
 width="310.000000pt" height="310.000000pt" viewBox="0 0 310.000000 310.000000"
 preserveAspectRatio="xMidYMid meet">
<metadata>
Created by potrace 1.11, written by Peter Selinger 2001-2013
</metadata>
<g transform="translate(0.000000,310.000000) scale(0.100000,-0.100000)"
fill="#000000" stroke="none">
<path d="M125 3085 c-37 -17 -74 -50 -100 -90 -20 -29 -20 -55 -23 -1420 -2
-1039 0 -1401 9 -1433 15 -53 77 -118 127 -132 57 -16 2772 -14 2826 2 51 16
109 74 124 126 9 30 12 386 12 1422 0 1379 0 1381 -21 1422 -24 46 -41 66 -84
94 -29 19 -61 19 -1435 21 -1170 1 -1410 -1 -1435 -12z"/>
</g>
</svg>
