<?xml version="1.0" encoding="utf-8"?>
<!-- Generator: Adobe Illustrator 18.0.0, SVG Export Plug-In . SVG Version: 6.00 Build 0)  -->
<!DOCTYPE svg PUBLIC "-//W3C//DTD SVG 1.1//EN" "http://www.w3.org/Graphics/SVG/1.1/DTD/svg11.dtd">
<svg version="1.1" id="Camada_1" xmlns="http://www.w3.org/2000/svg" xmlns:xlink="http://www.w3.org/1999/xlink" x="0px" y="0px"
	 viewBox="0 0 169.7 172.7" enable-background="new 0 0 169.7 172.7" xml:space="preserve">
<g>
	<path fill-rule="evenodd" clip-rule="evenodd" fill="#329243" d="M0,157.1V34.2c0-7.1,5.8-12.9,12.9-12.9h122.9L0,157.1z"/>
	<path fill-rule="evenodd" clip-rule="evenodd" fill="#FCE227" d="M0,159.7v-2.6L135.8,21.3h2.6c7.1,0,12.9,5.8,12.9,12.9v2.6
		L15.5,172.7h-2.6C5.8,172.7,0,166.9,0,159.7z"/>
	<polygon fill-rule="evenodd" clip-rule="evenodd" fill="#516EB1" points="15.5,172.7 75.7,112.5 135.8,172.7 	"/>
	<path fill-rule="evenodd" clip-rule="evenodd" fill="#FFFFFF" d="M135.8,172.7l-61.1-61.1l15.5-15.5l61.1,61.1v2.6
		c0,7.1-5.8,12.9-12.9,12.9H135.8z"/>
	<polygon fill-rule="evenodd" clip-rule="evenodd" fill="#C1BCB3" points="151.4,157.1 91.2,97 151.4,36.8 	"/>
	<path fill="#EFEFEF" d="M27,38c7.7-3.5,17.3-2.1,23.6,3.7c-2,2-4,3.9-6,5.9c-6.3-6.2-18-3.3-20.9,4.9c-3.8,8.1,2.5,18.7,11.6,18.8
		c5.9,0.7,11.8-3.3,13-9.1c-4.1,0-8.2,0-12.3,0c-0.1-2.5-0.1-5.1-0.1-7.6c6.9,0.2,13.9-0.4,20.7,0.3c0.5,5,0.2,10.4-2.5,14.8
		c-4.2,7.9-14.3,11.4-22.7,9.4c-10.5-2.2-18.3-12.9-16.9-23.6C15.1,48,20.2,41.2,27,38z"/>
	<g>
		<g>
			<g>
				<path fill="#DB4B3E" d="M124.9,0h4.9c12.3,0.7,24.3,6.7,31.7,16.5c4.9,6.2,7.6,14,8.2,21.8v2.9c-0.3,15.2-10,27.7-18.5,39.5
					c-9.5,13.4-18.2,27.9-20.6,44.4c-0.6,2.8,0.1,6.7-3.2,8c-0.8-0.6-1.7-1.1-2.2-2c-1-9.2-3.3-18.3-7.2-26.7
					c-4.5-9.8-10.7-18.7-17-27.3c-3.8-5.2-7.5-10.6-10.5-16.3c-4.7-8.6-6.5-18.8-4.5-28.4c1.6-7.6,5.6-14.7,11.1-20.1
					C104.5,5,114.6,0.6,124.9,0z M124,26.8c-5.8,1.3-10.7,6.4-11.2,12.5c-0.6,5.6,2.7,11.3,7.7,13.8c5.4,2.9,12.6,2,17.2-2.2
					c4.2-3.8,5.8-10.2,3.6-15.5C138.6,28.8,130.8,25.1,124,26.8z"/>
			</g>
		</g>
		<g>
			<path fill="#802C27" d="M124,26.8c6.8-1.7,14.6,2,17.2,8.6c2.2,5.3,0.7,11.7-3.6,15.5c-4.6,4.2-11.7,5-17.2,2.2
				c-5-2.5-8.3-8.2-7.7-13.8C113.3,33.2,118.1,28.1,124,26.8z"/>
		</g>
	</g>
</g>
</svg>
