<?xml version="1.0" encoding="utf-8"?>
<!-- Generator: Adobe Illustrator 18.0.0, SVG Export Plug-In . SVG Version: 6.00 Build 0)  -->
<!DOCTYPE svg PUBLIC "-//W3C//DTD SVG 1.1//EN" "http://www.w3.org/Graphics/SVG/1.1/DTD/svg11.dtd">
<svg version="1.1" id="Camada_1" xmlns="http://www.w3.org/2000/svg" xmlns:xlink="http://www.w3.org/1999/xlink" x="0px" y="0px"
	 viewBox="0 0 21 30" enable-background="new 0 0 21 30" xml:space="preserve">
<path fill-rule="evenodd" clip-rule="evenodd" fill="#FDCC12" d="M10.5,0C4.7,0,0,4.7,0,10.4C0,16.2,10.5,30,10.5,30
	S21,16.2,21,10.4C21,4.7,16.3,0,10.5,0z M10.5,14.2c-2.2,0-4-1.8-4-4s1.8-4,4-4s4,1.8,4,4S12.7,14.2,10.5,14.2z"/>
<path fill-rule="evenodd" clip-rule="evenodd" fill="#F8DC43" d="M10.5,3.1c-3.9,0-7.1,3.2-7.1,7.1s3.2,7.1,7.1,7.1s7.1-3.2,7.1-7.1
	S14.4,3.1,10.5,3.1z M10.5,14.2c-2.2,0-4-1.8-4-4c0-2.2,1.8-4,4-4s4,1.8,4,4C14.5,12.4,12.7,14.2,10.5,14.2z"/>
</svg>
