<?xml version="1.0" encoding="utf-8"?>
<!-- Generator: Adobe Illustrator 18.0.0, SVG Export Plug-In . SVG Version: 6.00 Build 0)  -->
<!DOCTYPE svg PUBLIC "-//W3C//DTD SVG 1.1//EN" "http://www.w3.org/Graphics/SVG/1.1/DTD/svg11.dtd">
<svg version="1.1" id="Camada_1" xmlns="http://www.w3.org/2000/svg" xmlns:xlink="http://www.w3.org/1999/xlink" x="0px" y="0px"
	 viewBox="0 0 357.7 127.1" enable-background="new 0 0 357.7 127.1" xml:space="preserve">
<g>
	<defs>
		<rect id="SVGID_1_" width="357.7" height="127.1"/>
	</defs>
	<clipPath id="SVGID_2_">
		<use xlink:href="#SVGID_1_"  overflow="visible"/>
	</clipPath>
	<path clip-path="url(#SVGID_2_)" fill="#FFCC00" d="M310.2,1.9v6.3c0,1,0.8,1.8,1.8,1.9c19.1,0.9,34.5,16.3,35.5,35.5
		c0,1,0.9,1.8,1.9,1.8h6.3c1.1,0,1.9-0.9,1.9-2C356.7,20.9,336.8,1,312.2,0C311.1,0,310.2,0.8,310.2,1.9"/>
	<path clip-path="url(#SVGID_2_)" fill="#0C459C" d="M12,66.7v10.3c0,1.8,0.9,2.7,2.7,2.7h21.8c4,0,5.2,1,5.2,5.2v0.8
		c0,4-1.2,5.2-5.2,5.2H10.8C3.2,91,0,87.7,0,80.2V43.4c0-7.5,3.2-10.8,10.8-10.8h25.8c4,0,5.2,1.2,5.2,5.2v0.8
		c0,4.2-1.2,5.2-5.2,5.2H14.7c-1.8,0-2.7,0.9-2.7,2.7v9H33c4,0,5.2,1,5.2,5.2v0.8c0,4-1.2,5.2-5.2,5.2H12z"/>
	<path clip-path="url(#SVGID_2_)" fill="#0C459C" d="M66.4,83.3c0-4.2,1.2-5.3,5.2-4.2c4.6,1.2,9.1,1.8,13.7,1.8
		c7.2,0,9.8-1.3,9.8-4.9c0-2.6-1.4-4-7.2-7.4l-11.5-6.7c-6-3.5-9.1-8.5-9.1-15.1c0-10.1,6.3-15.1,20.9-15.1c4,0,7.8,0.4,11.2,1.4
		c4.3,1.2,5.3,2.2,5.3,6.3v0.9c0,4.3-1.1,5.2-5.3,4c-3.1-1-6.8-1.4-11.2-1.4c-6.1,0-8.5,1-8.5,4.2c0,2.2,1.1,3.3,4.9,5.6l11.9,7
		c7.5,4.4,10.9,8.6,10.9,16.3c0,10.5-6.6,16.1-22.4,16.1c-4.9,0-9.5-0.5-13.6-1.7c-4.2-1.2-5.1-2.2-5.1-6.2V83.3z"/>
	<path clip-path="url(#SVGID_2_)" fill="#0C459C" d="M115.2,55.7c0-7.6,1.8-13.6,5.5-17.7c3.7-4.1,10.1-6.2,19.3-6.2
		s15.6,2.1,19.3,6.2c3.7,4.1,5.5,10.1,5.5,17.7v12.6c0,7.6-1.8,13.6-5.5,17.7c-3.7,4.1-10.1,6.2-19.3,6.2s-15.6-2.1-19.3-6.2
		c-3.7-4.1-5.5-10.1-5.5-17.7V55.7z M152.7,55.7c0-4.5-0.8-7.7-2.5-9.7c-1.7-2-5-3-10.2-3c-5.1,0-8.4,1-10.2,3
		c-1.7,2-2.5,5.2-2.5,9.7v12.6c0,4.5,0.8,7.7,2.5,9.7c1.7,2,5,3,10.2,3c5.1,0,8.4-1,10.2-3c1.7-2,2.5-5.2,2.5-9.7V55.7z"/>
	<path clip-path="url(#SVGID_2_)" fill="#0C459C" d="M175.4,37.8c0-4,1-5.2,5.2-5.2h1.6c4.2,0,5.2,1.2,5.2,5.2v39.3
		c0,1.8,0.9,2.7,2.7,2.7h18.2c4,0,5.2,1,5.2,5.2v0.8c0,4-1.2,5.2-5.2,5.2h-22.2c-7.5,0-10.8-3.2-10.8-10.8V37.8z"/>
	<path clip-path="url(#SVGID_2_)" fill="#0C459C" d="M325,86.7L313.3,69c8.1-2.1,12.1-8,12.1-17.7c0-12.5-6.6-18.7-19.9-18.7h-14.7
		c-7.5,0-10.8,3.2-10.8,10.8v42.4c0,4,1,5.2,5.2,5.2h1.6c4.2,0,5.2-1.2,5.2-5.2V46.5c0-1.5,1.2-2.7,2.7-2.7h10.8
		c5.7,0,7.8,2.4,7.8,7.5c0,4.9-2.6,7.4-7.8,7.4h-0.4c-2.7,0-4.9,2.2-4.9,4.9v4.7c0,1.1,0.3,2.2,0.9,3.1l10,15.3
		c2.4,3.5,4,4.4,8.1,4.4h3.4C326.9,91,327.3,90,325,86.7"/>
	<path clip-path="url(#SVGID_2_)" fill="#0C459C" d="M271.3,85.9l-10.1-37.2c-1.8-6.7-2.8-9.5-5.2-12.8c-2.4-3.2-5.7-4.3-11.1-4.3
		c-5.4,0-8.6,1.1-11.1,4.3c-2.4,3.2-3.4,6-5.2,12.8l-10.1,37.2c-1.1,4-0.4,5,3.9,5h1.7c4.2,0,5.5-1,6.6-5l9.5-36.7
		c0.8-3,1.4-4.8,1.9-5.6c0.4-0.8,1.4-1.3,2.8-1.3c1.3,0,2.3,0.4,2.8,1.3c0.4,0.8,1.1,2.6,1.9,5.6l9.5,36.7c1.1,4,2.3,5,6.6,5h1.7
		C271.7,91,272.4,90,271.3,85.9"/>
	<path clip-path="url(#SVGID_2_)" fill="#0C459C" d="M64.1,62.5c0,3.2-0.8,4.2-4.2,4.2H48.4c-3.4,0-4.2-1-4.2-4.2v-1.2
		c0-3.2,0.8-4.2,4.2-4.2h11.5c3.4,0,4.2,1,4.2,4.2V62.5z"/>
	<path clip-path="url(#SVGID_2_)" fill="#0C459C" d="M110.9,108.8c-3.6,0-5.4,1.8-5.4,5.4v2.4c0,3.8,1.9,5.3,5.9,5.3
		c1.2,0,2.4-0.2,3.5-0.5c0.7-0.2,0.8-0.4,0.8-0.9v-0.2c0-0.6-0.2-0.8-0.8-0.7c-1.2,0.3-2.3,0.5-3.5,0.5c-2.8,0-4-0.9-4-3.2V116h7.7
		c0.7,0,0.8-0.2,0.9-0.8c0-0.3,0.1-0.8,0.1-1.4C116.1,110.5,114.2,108.8,110.9,108.8 M114.3,114.4h-6.9v-0.8c0-2.1,1.1-3.1,3.4-3.1
		c2.3,0,3.4,1,3.4,3.1V114.4z"/>
	<path clip-path="url(#SVGID_2_)" fill="#0C459C" d="M124.1,108.8c-3.5,0-5.3,1.6-5.3,4.7v7.2c0,0.7,0.2,0.8,0.8,0.8h0.3
		c0.7,0,0.8-0.1,0.8-0.8v-7.2c0-2,0.8-2.9,3.4-2.9c2.6,0,3.4,0.9,3.4,2.9v7.2c0,0.7,0.1,0.8,0.8,0.8h0.3c0.7,0,0.8-0.1,0.8-0.8v-7.2
		C129.4,110.4,127.9,108.8,124.1,108.8"/>
	<path clip-path="url(#SVGID_2_)" fill="#0C459C" d="M142.7,108.2l-0.2-0.2c-0.4-0.4-0.6-0.4-1,0l-1.4,1.3c-0.8-0.3-1.6-0.5-2.6-0.5
		c-3.3,0-5.3,1.6-5.3,4.4v0.3c0,1.9,0.7,3.1,2.1,3.7c-1.4,0.2-2.1,0.9-2.1,2c0,0.8,0.4,1.3,1,1.7c-0.9,0.6-1.4,1.5-1.4,2.7
		c0,1.2,0.4,2.1,1.2,2.7c0.8,0.6,2.3,0.9,4.4,0.9c2.1,0,3.5-0.3,4.3-0.9c0.8-0.6,1.2-1.6,1.2-3c0-1.3-0.4-2.2-1.2-2.7
		c-0.8-0.5-2.2-0.8-4.3-0.8c-1.3,0-2.2-0.1-2.7-0.2c-0.4-0.1-0.6-0.4-0.6-0.7c0-0.4,0.2-0.6,0.6-0.8c0.4-0.1,1.3-0.2,2.7-0.2
		c3.5,0,5.3-1.5,5.3-4.4v-0.3c0-1.2-0.4-2.2-1.1-2.8l1.1-1.2C143.1,108.7,143.1,108.5,142.7,108.2 M134.9,121.3
		c0.6,0.1,1.4,0.1,2.5,0.1c2.7,0,3.7,0.3,3.7,1.9c0,1.7-1,2.2-3.7,2.2c-2.7,0-3.7-0.4-3.7-2.1C133.7,122.4,134.1,121.6,134.9,121.3
		 M140.7,113.5c0,1.8-0.8,2.7-3.3,2.7c-2.6,0-3.4-0.9-3.4-2.7v-0.3c0-1.8,1.1-2.7,3.4-2.7c2.2,0,3.3,0.9,3.3,2.7V113.5z"/>
	<path clip-path="url(#SVGID_2_)" fill="#0C459C" d="M150.3,108.8c-3.6,0-5.4,1.8-5.4,5.4v2.4c0,3.8,1.9,5.3,5.9,5.3
		c1.2,0,2.4-0.2,3.5-0.5c0.7-0.2,0.8-0.4,0.8-0.9v-0.2c0-0.6-0.2-0.8-0.8-0.7c-1.2,0.3-2.3,0.5-3.5,0.5c-2.8,0-4-0.9-4-3.2V116h7.7
		c0.7,0,0.8-0.2,0.9-0.8c0.1-0.3,0.1-0.8,0.1-1.4C155.5,110.5,153.7,108.8,150.3,108.8 M153.7,114.4h-6.9v-0.8
		c0-2.1,1.1-3.1,3.4-3.1s3.4,1,3.4,3.1V114.4z"/>
	<path clip-path="url(#SVGID_2_)" fill="#0C459C" d="M163.6,108.8c-3.5,0-5.3,1.6-5.3,4.7v7.2c0,0.7,0.2,0.8,0.8,0.8h0.3
		c0.7,0,0.8-0.1,0.8-0.8v-7.2c0-2,0.8-2.9,3.4-2.9c2.6,0,3.4,0.9,3.4,2.9v7.2c0,0.7,0.1,0.8,0.8,0.8h0.3c0.7,0,0.8-0.1,0.8-0.8v-7.2
		C168.9,110.4,167.3,108.8,163.6,108.8"/>
	<path clip-path="url(#SVGID_2_)" fill="#0C459C" d="M178,108.8c-1.9,0-3.2,0.6-4,1.7v-5.9c0-0.7-0.1-0.8-0.8-0.8h-0.3
		c-0.6,0-0.8,0.1-0.8,0.8v16.1c0,0.7,0.2,0.8,0.8,0.8h0.3c0.7,0,0.8-0.1,0.8-0.8v-6.9c0-2.3,1.1-3.3,3.5-3.3c2.4,0,3.3,0.9,3.3,2.9
		v7.3c0,0.7,0.1,0.8,0.8,0.8h0.3c0.7,0,0.8-0.1,0.8-0.8v-7.5C182.7,110.2,181.1,108.8,178,108.8"/>
	<path clip-path="url(#SVGID_2_)" fill="#0C459C" d="M189.9,108.8c-1,0-1.9,0.1-2.7,0.3c-0.6,0.1-0.8,0.3-0.8,0.9v0.2
		c0,0.6,0.2,0.8,0.8,0.6c0.7-0.2,1.7-0.3,2.8-0.3c2.2,0,3.3,0.6,3.3,2.3v1.5h-3c-3.5,0-5.2,1.1-5.2,3.7c0,2.6,1.9,3.8,4.8,3.8
		c3.7,0,5.3-1.2,5.3-4v-5C195.2,110.1,193.4,108.8,189.9,108.8 M193.3,117.7c0,1.9-1.1,2.4-3.4,2.4c-1.9,0-2.8-0.7-2.8-2.2
		c0-1.6,1-2.2,3.3-2.2h3V117.7z"/>
	<path clip-path="url(#SVGID_2_)" fill="#0C459C" d="M203.1,108.8c-0.2,0-0.5-0.1-0.8-0.1c-2.9,0-4.3,1.5-4.3,4.4v7.6
		c0,0.7,0.2,0.8,0.8,0.8h0.3c0.7,0,0.8-0.1,0.8-0.8v-7.5c0-1.8,0.6-2.7,2.4-2.7c0.2,0,0.5,0,0.8,0.1c0.6,0.1,0.8,0,0.8-0.7v-0.3
		C203.9,109.1,203.8,108.9,203.1,108.8"/>
	<path clip-path="url(#SVGID_2_)" fill="#0C459C" d="M207.1,103.9c-0.7,0-1.3,0.6-1.3,1.2c0,0.7,0.6,1.2,1.3,1.2
		c0.7,0,1.2-0.5,1.2-1.2C208.3,104.4,207.8,103.9,207.1,103.9"/>
	<path clip-path="url(#SVGID_2_)" fill="#0C459C" d="M207.2,109H207c-0.7,0-0.8,0.2-0.8,0.8v10.9c0,0.7,0.1,0.8,0.8,0.8h0.3
		c0.6,0,0.8-0.1,0.8-0.8v-10.9C208,109.2,207.9,109,207.2,109"/>
	<path clip-path="url(#SVGID_2_)" fill="#0C459C" d="M215.5,108.8c-1,0-1.9,0.1-2.7,0.3c-0.6,0.1-0.8,0.3-0.8,0.9v0.2
		c0,0.6,0.2,0.8,0.8,0.6c0.7-0.2,1.7-0.3,2.8-0.3c2.2,0,3.3,0.6,3.3,2.3v1.5h-3c-3.5,0-5.2,1.1-5.2,3.7c0,2.6,1.9,3.8,4.8,3.8
		c3.7,0,5.3-1.2,5.3-4v-5C220.9,110.1,219.1,108.8,215.5,108.8 M219,117.7c0,1.9-1.1,2.4-3.4,2.4c-1.9,0-2.8-0.7-2.8-2.2
		c0-1.6,1-2.2,3.3-2.2h3V117.7z"/>
</g>
</svg>
